<?xml version="1.0" encoding="utf-8"?>
<!-- Generator: Adobe Illustrator 25.2.1, SVG Export Plug-In . SVG Version: 6.00 Build 0)  -->
<svg version="1.1" id="Capa_1" xmlns="http://www.w3.org/2000/svg" xmlns:xlink="http://www.w3.org/1999/xlink" x="0px" y="0px"
	 viewBox="0 0 22 14.4" style="enable-background:new 0 0 22 14.4;" xml:space="preserve">
<g>
	<path d="M6.3,6.5c-0.4,0-0.7,0.3-0.7,0.7c0,0.4,0.3,0.7,0.7,0.7C6.7,7.9,7,7.6,7,7.2C7,6.8,6.7,6.5,6.3,6.5z M6.3,7.5
		c-0.1,0-0.3-0.1-0.3-0.3c0-0.1,0.1-0.3,0.3-0.3c0.1,0,0.3,0.1,0.3,0.3C6.6,7.4,6.5,7.5,6.3,7.5z"/>
	<path d="M21.8,5.2C21.9,5.2,22,5.1,22,5V1.1c0-0.1-0.1-0.2-0.2-0.2H20c-0.1,0-0.2,0.1-0.2,0.2V5c0,0.1,0.1,0.2,0.2,0.2h0.7v0.5h-2
		c-0.3-0.3-0.7-0.4-1.2-0.4c-1,0-1.8,0.7-1.9,1.7h-0.2V6.5c0-0.1-0.1-0.2-0.2-0.2h-1.6l-0.3-0.6c0-0.1-0.1-0.1-0.2-0.1h-2.2V5.2h0.9
		c0.1,0,0.2-0.1,0.2-0.2V0.2C12,0.1,11.9,0,11.8,0H9.6C9.5,0,9.4,0.1,9.4,0.2v4.7c0,0.1,0.1,0.2,0.2,0.2h0.9v0.4H8.4
		c-0.1,0-0.2,0.1-0.2,0.2V7H7.9C7.8,6.2,7.1,5.5,6.3,5.5c-0.6,0-1.1,0.3-1.4,0.7C4.6,5.8,4,5.5,3.5,5.5h-1V5.2h0.3
		C2.9,5.2,3,5.1,3,5V1.1C3,1,2.9,0.9,2.8,0.9H1C0.9,0.9,0.8,1,0.8,1.1V5c0,0.1,0.1,0.2,0.2,0.2h0.3v0.3H0.2C0.1,5.5,0,5.6,0,5.7v2.9
		c0,0.1,0.1,0.2,0.2,0.2h1.1v0.3H1c-0.1,0-0.2,0.1-0.2,0.2v3.9c0,0.1,0.1,0.2,0.2,0.2h1.8c0.1,0,0.2-0.1,0.2-0.2V9.4
		c0-0.1-0.1-0.2-0.2-0.2H2.4V8.9h1c0.6,0,1.1-0.3,1.4-0.7c0.3,0.4,0.8,0.7,1.4,0.7c0.9,0,1.6-0.6,1.7-1.5h0.2v1.2
		c0,0.1,0.1,0.2,0.2,0.2h2.1v0.4H9.6c-0.1,0-0.2,0.1-0.2,0.2v4.7c0,0.1,0.1,0.2,0.2,0.2h2.2c0.1,0,0.2-0.1,0.2-0.2V9.5
		c0-0.1-0.1-0.2-0.2-0.2h-0.9V8.9h2.2c0.1,0,0.2,0,0.2-0.1l0.3-0.6h1.6c0.1,0,0.2-0.1,0.2-0.2V7.4h0.2c0.1,0.9,0.9,1.7,1.9,1.7
		c0.4,0,0.8-0.1,1.2-0.4h2v0.5H20c-0.1,0-0.2,0.1-0.2,0.2v3.9c0,0.1,0.1,0.2,0.2,0.2h1.8c0.1,0,0.2-0.1,0.2-0.2V9.4
		c0-0.1-0.1-0.2-0.2-0.2h-0.7V8.7h0.7c0.1,0,0.2-0.1,0.2-0.2V5.9c0-0.1-0.1-0.2-0.2-0.2h-0.7V5.2H21.8z M10.9,4.7V4h0.7v0.7H10.9z
		 M10.5,2.4H9.8V1.6h0.7V2.4z M10.9,1.6h0.7v0.8h-0.7V1.6z M10.5,2.8v0.8H9.8V2.8H10.5z M10.9,2.8h0.7v0.8h-0.7V2.8z M11.6,1.2h-0.7
		V0.4h0.7V1.2z M10.5,0.4v0.7H9.8V0.4H10.5z M9.8,4.7V4h0.7v0.7H9.8z M1.4,8.5V6h1.2v2.5H1.4z M3,6h0.4v2.5H3V6z M2.6,3.3v0.5H1.2
		V3.3H2.6z M1.2,2.8V2.3h1.4v0.5H1.2z M2.6,1.3v0.5H1.2V1.3H2.6z M1.2,4.2h1.4v0.5H1.2V4.2z M1.8,5.2H2v0.3H1.8V5.2z M0.4,6h0.5v2.5
		H0.4V6z M1.2,11.2v-0.5h1.4v0.5H1.2z M2.6,11.6v0.5H1.2v-0.5H2.6z M1.2,13.1v-0.5h1.4v0.5H1.2z M2.6,10.2H1.2V9.7h1.4
		C2.6,9.7,2.6,10.2,2.6,10.2z M2,9.2H1.8V8.9H2V9.2z M3.8,8.4V6c0.4,0.1,0.7,0.4,0.8,0.8v0.9C4.5,8,4.2,8.3,3.8,8.4z M6.3,8.5
		c-0.5,0-1-0.3-1.2-0.8V6.8C5.3,6.3,5.7,6,6.3,6c0.7,0,1.2,0.6,1.2,1.2C7.5,7.9,6.9,8.5,6.3,8.5z M10.5,9.7v0.7H9.8V9.7H10.5z
		 M10.9,12h0.7v0.8h-0.7V12z M10.5,12.8H9.8V12h0.7V12.8z M10.9,11.6v-0.8h0.7v0.8H10.9z M10.5,11.6H9.8v-0.8h0.7V11.6z M9.8,13.2
		h0.7V14H9.8V13.2z M10.9,14v-0.7h0.7V14H10.9z M11.6,9.7v0.7h-0.7V9.7H11.6z M8.6,5.9h0.6v2.5H8.6V5.9z M13,8.5H9.7V5.9H13l0.3,0.5
		v1.5L13,8.5z M15,7.7h-1.3V6.7H15V7.7z M20.2,11.2v-0.5h1.4v0.5H20.2z M21.6,11.6v0.5h-1.4v-0.5H21.6z M20.2,13.1v-0.5h1.4v0.5
		H20.2z M21.6,10.2h-1.4V9.7h1.4V10.2z M16.1,7.2c0-0.5,0.2-0.9,0.6-1.2v2.4C16.3,8.1,16.1,7.7,16.1,7.2z M17.5,8.7
		c-0.1,0-0.3,0-0.4-0.1V5.8c0.1,0,0.3-0.1,0.4-0.1c0.3,0,0.7,0.1,0.9,0.3c0,0,0,0,0,0v2.2c0,0,0,0,0,0C18.2,8.5,17.9,8.7,17.5,8.7z
		 M21.6,8.3h-2.6V6.1h2.6V8.3z M21.6,3.3v0.5h-1.4V3.3H21.6z M20.2,2.8V2.3h1.4v0.5H20.2z M21.6,1.3v0.5h-1.4V1.3H21.6z M20.2,4.2
		h1.4v0.5h-1.4V4.2z"/>
</g>
</svg>
