<svg id="Capa_1" data-name="Capa 1" xmlns="http://www.w3.org/2000/svg" viewBox="0 0 22 22"><defs><style>.cls-1{fill:#e03459;}</style></defs><path class="cls-1" d="M0,17.32A4.69,4.69,0,0,0,4.68,22a.4.4,0,0,0,.4-.4.39.39,0,0,0-.4-.39A3.9,3.9,0,0,1,.79,17.32a.39.39,0,0,0-.39-.4A.4.4,0,0,0,0,17.32Z"/><path class="cls-1" d="M5.08,20.17a.4.4,0,0,0-.4-.39,2.47,2.47,0,0,1-2.46-2.46.4.4,0,1,0-.79,0,3.26,3.26,0,0,0,3.25,3.25A.4.4,0,0,0,5.08,20.17Z"/><path class="cls-1" d="M5.08,18.75a.4.4,0,0,0-.4-.4,1,1,0,0,1-1-1,.4.4,0,1,0-.79,0,1.83,1.83,0,0,0,1.82,1.82A.4.4,0,0,0,5.08,18.75Z"/><path class="cls-1" d="M5.05,17.51l2.08,2.08a.41.41,0,0,0,.56,0,3.72,3.72,0,0,0,.9-3.81l.63-.63,1,1a.44.44,0,0,0,.28.12.4.4,0,0,0,.28-.12l2.56-2.55,1,1-1.25,1.25a.4.4,0,0,0,0,.56l5.16,5.16a.39.39,0,0,0,.28.12.4.4,0,0,0,.29-.12l3.06-3.06a.4.4,0,0,0,0-.57l-5.16-5.16a.4.4,0,0,0-.56,0L14.91,14l-1-1,1.92-1.93a2.2,2.2,0,0,0,.26-2.81l.9-.9a.43.43,0,0,0,.11-.28A.39.39,0,0,0,17,6.84L15.16,5a.4.4,0,0,0-.56,0l-.9.9a2.2,2.2,0,0,0-2.81.26L9,8.1l-1-1L9.21,5.84a.4.4,0,0,0,.12-.28.42.42,0,0,0-.12-.28L4.05.12A.39.39,0,0,0,3.77,0a.4.4,0,0,0-.29.12L.42,3.18a.4.4,0,0,0-.12.29.39.39,0,0,0,.12.28L5.58,8.91a.39.39,0,0,0,.56,0L7.39,7.66l1,1L5.85,11.22a.39.39,0,0,0,0,.56l1,1-.63.63a3.72,3.72,0,0,0-3.81.9.43.43,0,0,0-.11.28.39.39,0,0,0,.11.28L4.49,17l-.14.14a.4.4,0,0,0,0,.56.39.39,0,0,0,.56,0ZM3,5.18l2.5-2.5L6.65,3.84,4.14,6.35ZM4.92,2.12l-2.5,2.5L1.26,3.47,3.77,1ZM8.37,5.56,5.86,8.07,4.7,6.91,7.21,4.4Zm11,11L16.82,19l-1.17-1.16,2.51-2.51Zm-1.94,3.06,2.5-2.5L21,18.23l-2.51,2.51Zm-3.45-3.44,2.51-2.51,1.16,1.16L15.09,17.3Zm1-5.26-3.37,3.37L7.75,10.44l3.37-3.37ZM13.45,6.74l1.81,1.81a1.4,1.4,0,0,1,.42,1,1.37,1.37,0,0,1-.22.74L11.71,6.54a1.38,1.38,0,0,1,.74-.21A1.4,1.4,0,0,1,13.45,6.74Zm2.69.38-.6.59-.62-.63-.63-.62.59-.6ZM6.69,11.5l.5-.5L11,14.81l-.5.5ZM8.24,15a4,4,0,0,0-.55-.7,4,4,0,0,0-.7-.55l.42-.42,1.25,1.25Zm-5-.4a2.94,2.94,0,0,1,4.12,4.12Z"/></svg>